<?xml version="1.0" standalone="no"?>
<!DOCTYPE svg PUBLIC "-//W3C//DTD SVG 20010904//EN"
 "http://www.w3.org/TR/2001/REC-SVG-20010904/DTD/svg10.dtd">
<svg version="1.0" xmlns="http://www.w3.org/2000/svg"
 width="1024.000000pt" height="1024.000000pt" viewBox="0 0 1024.000000 1024.000000"
 preserveAspectRatio="xMidYMid meet">

<g transform="translate(0.000000,1024.000000) scale(0.100000,-0.100000)"
fill="#FFFFFF" stroke="none">
<path d="M2203 6273 c4 -1352 7 -2614 7 -2805 l0 -348 446 0 446 0 47 33 c25
18 104 75 175 127 l128 93 -2 871 c-2 479 -2 877 -1 884 1 9 94 12 431 12
l429 0 134 -172 c74 -95 143 -181 154 -191 20 -17 23 -14 145 160 69 98 200
286 291 418 184 268 247 337 354 388 64 30 75 32 178 32 107 0 112 -1 190 -38
64 -31 96 -55 165 -125 48 -48 99 -109 114 -135 16 -27 35 -47 45 -47 46 0
237 137 365 260 338 326 516 768 516 1280 0 898 -551 1538 -1470 1705 -269 48
-252 48 -1819 52 l-1474 4 6 -2458z m2892 1410 c216 -50 348 -117 460 -234
124 -130 174 -259 182 -470 17 -427 -200 -703 -622 -790 -155 -32 -378 -40
-1040 -37 l-630 3 -2 778 -3 778 783 -4 c750 -3 786 -4 872 -24z"/>
<path d="M7216 6015 c-61 -16 -85 -40 -221 -220 -247 -329 -410 -476 -633
-569 -76 -32 -201 -63 -292 -72 l-68 -6 -17 53 c-34 104 -97 211 -165 280 -99
100 -198 141 -303 125 -90 -14 -113 -38 -329 -356 -640 -939 -868 -1246 -1136
-1530 -242 -257 -415 -407 -817 -708 -121 -91 -254 -193 -296 -228 -103 -86
-221 -212 -258 -277 -112 -197 -65 -434 124 -622 171 -171 386 -248 725 -262
493 -20 1029 104 1610 371 179 83 337 169 735 399 630 365 827 463 1570 778
675 286 990 498 1107 745 87 186 32 391 -155 571 -54 52 -65 69 -71 105 -32
212 -242 609 -480 906 -161 202 -389 439 -479 497 -41 26 -97 34 -151 20z
m187 -327 c113 -112 290 -316 285 -329 -2 -3 -51 -49 -109 -101 -203 -184
-351 -376 -464 -603 -117 -236 -170 -429 -182 -665 l-6 -116 -131 -69 c-354
-189 -632 -356 -1066 -643 -339 -224 -566 -367 -697 -441 -154 -87 -450 -226
-603 -284 -466 -177 -1011 -290 -1410 -291 l-155 -1 -20 40 c-27 54 -26 146 2
200 57 109 150 194 500 456 310 233 509 397 677 559 124 120 285 291 354 375
24 30 36 37 46 30 8 -6 97 -63 197 -127 157 -101 189 -118 224 -118 22 0 50 7
62 15 26 18 43 71 36 108 -8 42 -20 51 -294 222 l-107 67 85 116 c46 64 92
127 101 139 l17 23 163 -105 c90 -58 177 -112 192 -120 43 -22 76 -18 110 13
25 21 31 35 32 68 0 23 -5 50 -11 61 -6 12 -89 71 -186 133 -96 61 -175 115
-175 120 0 4 10 22 23 41 116 170 161 230 171 226 6 -3 76 -47 156 -99 176
-115 200 -128 240 -128 80 0 122 116 63 172 -16 14 -101 72 -191 128 -145 92
-161 105 -149 119 8 9 85 122 172 251 86 129 167 245 178 258 26 28 54 23 111
-18 71 -53 121 -141 160 -282 20 -70 56 -114 104 -128 91 -25 311 -1 467 51
257 87 500 289 759 632 77 103 124 157 136 157 11 0 70 -51 133 -112z m469
-574 c96 -139 259 -503 258 -572 -1 -18 -83 -65 -585 -337 -400 -217 -418
-226 -421 -223 -6 6 35 228 55 299 59 211 178 429 338 621 75 91 283 289 298
285 5 -2 31 -34 57 -73z m430 -819 c127 -158 115 -280 -46 -440 -149 -148
-404 -289 -961 -528 -582 -251 -932 -421 -1300 -632 -500 -288 -621 -354 -840
-461 -336 -164 -552 -246 -841 -318 -520 -129 -992 -126 -1244 9 l-45 24 80 1
c184 1 558 55 807 116 464 113 844 264 1243 492 162 93 219 129 665 424 541
357 834 526 1815 1046 219 116 458 248 530 294 33 21 67 37 75 35 8 -1 36 -29
62 -62z"/>
</g>
</svg>
